<?xml version="1.0" encoding="utf-8"?>
<!-- Generator: Adobe Illustrator 21.0.1, SVG Export Plug-In . SVG Version: 6.00 Build 0)  -->
<svg version="1.1" xmlns="http://www.w3.org/2000/svg" xmlns:xlink="http://www.w3.org/1999/xlink" x="0px" y="0px" viewBox="0 0 100 100" style="enable-background:new 0 0 100 100;" xml:space="preserve">
<path fill-rule="evenodd" clip-rule="evenodd" d="M44.1,62.4l-8.7-30.4h52.2c1.3,0,2.5,0.6,3.3,1.6c0.8,1,1.1,2.3,0.7,3.5l-6.3,25.1c-0.5,1.9-2.1,3.2-4.1,3.2H48.1C46.3,65.5,44.6,64.2,44.1,62.4L44.1,62.4z M100,38.3v-4.2c-0.3-2-1.2-3.9-2.4-5.5c-2.4-3.1-6.1-4.9-10-4.9H33l-2.2-7.6C29.3,10.7,24.4,7,18.8,7H4.2C1.9,7,0,8.8,0,11.2c0,2.3,1.9,4.2,4.2,4.2h14.6c1.9,0,3.5,1.2,4,3l13.2,46.3c1.6,5.4,6.5,9.1,12.1,9.1h33.2c5.7,0,10.7-3.9,12.2-9.5l6.3-25.1C99.9,39,99.9,38.6,100,38.3L100,38.3z M50.2,82.2H46c-2.6,0.4-4.5,2.8-4.2,5.4c-0.3,2.6,1.6,5,4.2,5.4h4.2c2.6-0.4,4.5-2.8,4.2-5.4C54.7,84.9,52.8,82.5,50.2,82.2L50.2,82.2z M79.5,82.2c-2.6,0.4-4.5,2.8-4.2,5.4c-0.3,2.6,1.6,5,4.2,5.4h4.2c2.6-0.4,4.5-2.8,4.2-5.4c0.3-2.7-1.6-5.1-4.2-5.4H79.5L79.5,82.2z"/>
</svg>