<?xml version="1.0" encoding="utf-8"?>
<!-- Generator: Adobe Illustrator 21.0.1, SVG Export Plug-In . SVG Version: 6.00 Build 0)  -->
<svg version="1.1" xmlns="http://www.w3.org/2000/svg" xmlns:xlink="http://www.w3.org/1999/xlink" x="0px" y="0px" viewBox="0 0 100 100" style="enable-background:new 0 0 100 100;" xml:space="preserve">
<path d="M15.5,75.7c-3,0-5.5-2.5-5.5-5.5c0-3,2.5-5.5,5.5-5.5h35.7c0.9-3.3,2.7-6.2,5-8.5h0c3.6-3.6,8.5-5.8,14-5.8c5.5,0,10.4,2.2,14,5.8v0c3.6,3.6,5.8,8.5,5.8,14c0,5.4-2.2,10.4-5.8,14v0c-3.6,3.6-8.5,5.8-14,5.8c-5.4,0-10.4-2.2-14-5.8h0c-2.3-2.3-4.1-5.2-5-8.5H15.5L15.5,75.7z M76.4,64L76.4,64c-1.6-1.6-3.8-2.6-6.2-2.6c-2.4,0-4.6,1-6.2,2.6l0,0c-1.6,1.6-2.6,3.8-2.6,6.2c0,2.4,1,4.6,2.6,6.2l0,0c1.6,1.6,3.8,2.6,6.2,2.6c2.4,0,4.6-1,6.2-2.6l0,0c1.6-1.6,2.6-3.8,2.6-6.2C79,67.8,78,65.6,76.4,64L76.4,64z M38.8,10c5.4,0,10.4,2.2,14,5.8l0,0c2.3,2.3,4.1,5.2,5,8.5h26.7c3,0,5.5,2.5,5.5,5.5s-2.5,5.5-5.5,5.5H57.8c-0.9,3.3-2.7,6.2-5,8.5l0,0c-3.6,3.6-8.5,5.8-14,5.8c-5.4,0-10.4-2.2-14-5.8l0,0c-2.3-2.3-4.1-5.2-5-8.5h-4.3c-3,0-5.5-2.5-5.5-5.5s2.5-5.5,5.5-5.5h4.3c0.9-3.2,2.7-6.1,5-8.5l0,0C28.4,12.2,33.4,10,38.8,10L38.8,10z M45.1,23.6C43.5,22,41.3,21,38.8,21c-2.4,0-4.6,1-6.2,2.6h0c-1.6,1.6-2.5,3.8-2.5,6.2c0,2.4,1,4.6,2.6,6.2v0c1.6,1.6,3.8,2.6,6.2,2.6c2.4,0,4.6-1,6.2-2.6v0c1.6-1.6,2.6-3.8,2.6-6.2C47.6,27.3,46.6,25.1,45.1,23.6L45.1,23.6L45.1,23.6z"/>
</svg>