<?xml version="1.0" encoding="utf-8"?>
<!-- Generator: Adobe Illustrator 21.0.1, SVG Export Plug-In . SVG Version: 6.00 Build 0)  -->
<svg version="1.1" xmlns="http://www.w3.org/2000/svg" xmlns:xlink="http://www.w3.org/1999/xlink" x="0px" y="0px" viewBox="0 0 100 100" style="enable-background:new 0 0 100 100;" xml:space="preserve">
<path d="M50,21.4c-10-0.1-18.2,7.9-18.4,17.9v3.9c0,7.6-2.7,14.9-7.7,20.6l-1.5,1.8c-0.9,1.1-1.1,2.6-0.5,3.8c0.6,1.3,1.9,2.1,3.3,2.1h49.4c1.4,0,2.7-0.8,3.3-2.1c0.6-1.3,0.4-2.8-0.5-3.8L76,63.9c-4.9-5.7-7.6-13-7.7-20.6v-4C68.2,29.3,60,21.3,50,21.4L50,21.4z M42.7,78.7c0.1,4.1,3.5,7.3,7.5,7.2c3.9-0.1,7.1-3.2,7.2-7.2H42.7L42.7,78.7z M50,93c-8,0.1-14.6-6.3-14.7-14.3h-10c-4.2,0-8.1-2.4-10-6.2c-0.7-1.4-1-2.9-1.1-4.4v-0.2c0-2.5,0.9-4.9,2.6-6.8l1.5-1.8c3.8-4.5,5.9-10.2,6-16v-4c0-6.1,2.3-12,6.3-16.5c4.1-4.5,9.6-7.5,15.7-8.3v-3.8C46.3,8.6,48,7,50,7c2,0,3.7,1.6,3.7,3.7v3.8c6,0.8,11.6,3.8,15.7,8.3c4.1,4.5,6.3,10.4,6.3,16.5v3.9c0,5.9,2.1,11.6,6,16l1.5,1.8c1.7,1.9,2.5,4.3,2.6,6.7v0.3c0,1.5-0.4,3-1.1,4.4c-1.8,3.8-5.7,6.2-10,6.2h-10C64.6,86.7,58,93.1,50,93L50,93z"/>
</svg>