<?xml version="1.0" encoding="utf-8"?>
<!-- Generator: Adobe Illustrator 21.0.1, SVG Export Plug-In . SVG Version: 6.00 Build 0)  -->
<svg version="1.1" xmlns="http://www.w3.org/2000/svg" xmlns:xlink="http://www.w3.org/1999/xlink" x="0px" y="0px" viewBox="0 0 100 100" style="enable-background:new 0 0 100 100;" xml:space="preserve">
<path d="M91.3,35h-45c-2.1,0-3.7-1.7-3.7-3.7c0-2.1,1.7-3.7,3.7-3.7h45c2.1,0,3.7,1.7,3.7,3.7C95,33.3,93.3,35,91.3,35L91.3,35z M76.3,53.8h-30c-2.1,0-3.7-1.7-3.7-3.7c0-2.1,1.7-3.7,3.7-3.7h30c2.1,0,3.8,1.7,3.8,3.7C80,52.1,78.3,53.8,76.3,53.8L76.3,53.8z M20,72.5c-2.1,0-3.7-1.7-3.7-3.8V40.3l-4.9,4.9c-1.5,1.5-3.8,1.5-5.3,0c-1.5-1.5-1.5-3.9,0-5.3l11.3-11.3c1.5-1.5,3.8-1.5,5.3,0l11.3,11.2c1.4,1.5,1.3,3.9-0.2,5.3c-1.4,1.3-3.6,1.3-5.1,0l-4.9-4.9v28.5C23.8,70.8,22.1,72.5,20,72.5L20,72.5z M76.3,72.5h-30c-2.1,0-3.7-1.7-3.7-3.8c0-2.1,1.7-3.7,3.7-3.7h30c2.1,0,3.8,1.7,3.8,3.7C80,70.8,78.3,72.5,76.3,72.5L76.3,72.5z"/>
</svg>