<?xml version="1.0" encoding="utf-8"?>
<!-- Generator: Adobe Illustrator 21.0.1, SVG Export Plug-In . SVG Version: 6.00 Build 0)  -->
<svg version="1.1" xmlns="http://www.w3.org/2000/svg" xmlns:xlink="http://www.w3.org/1999/xlink" x="0px" y="0px" viewBox="0 0 100 100" style="enable-background:new 0 0 100 100;" xml:space="preserve">
<path fill-rule="evenodd" clip-rule="evenodd" d="M50,46.1c-8.7,0-15.7-7-15.7-15.6c0-8.6,7-15.6,15.7-15.6c8.7,0,15.7,7,15.7,15.6C65.7,39.1,58.7,46.1,50,46.1L50,46.1z M14.9,85.2C16.9,67.4,32,53.9,50,53.9c18,0,33.1,13.5,35.1,31.3H14.9L14.9,85.2z M7,84.8c-0.5,4.5,3.2,8.2,7.6,8.2h70.7c5,0,8-3.6,7.6-8.3c-1.3-16.4-12.6-30.4-28.1-36.1C82.3,34.6,71.7,6.8,49.8,7C28,7.2,17.9,34.8,35.2,48.7C19.6,54.4,8.7,68.4,7,84.8L7,84.8z"/>
</svg>
