<svg xmlns="http://www.w3.org/2000/svg" viewBox="0 0 30 20">
<path fill="#F1F1F1" d="M3,20c-1.7,0-3-1.4-3-3.1V3.1C0,1.4,1.4,0,3,0H27c1.7,0,3,1.4,3,3.1v13.9c0,1.7-1.4,3.1-3,3.1H3L3,20z"/>
<path fill="#E4E3EF" d="M26.9,0H3.1C1.4,0,0,1.4,0,3.1v13.8C0,18.6,1.4,20,3.1,20h23.8c1.7,0,3.1-1.4,3.1-3.1V3.1C30,1.4,28.6,0,26.9,0L26.9,0L26.9,0z M26.9,0.2c1.6,0,2.9,1.3,2.9,2.9v13.8c0,1.6-1.3,2.9-2.9,2.9H3.1c-1.6,0-2.9-1.3-2.9-2.9V3.1c0-1.6,1.3-2.9,2.9-2.9H26.9L26.9,0.2z"/>
<path fill="#D91F2A" d="M5.8,5.4H7V4.2h1.2V3H7V1.9H5.8V3H4.7v1.2h1.2V5.4L5.8,5.4z M23,5.4h1.2V4.2h1.1V3h-1.1V1.9H23V3h-1.2v1.2H23V5.4L23,5.4z M24.2,14.7H23v1.2h-1.2V17H23v1.2h1.2V17h1.1v-1.2h-1.1V14.7L24.2,14.7z M16.9,8.1V0h-3.8v8.1H0v3.8h13.1V20h3.8v-8.1H30V8.1H16.9L16.9,8.1z M7,14.7H5.8v1.2H4.7V17h1.2v1.2H7V17h1.2v-1.2H7V14.7L7,14.7z"/>
</svg>