<svg xmlns="http://www.w3.org/2000/svg" viewBox="0 0 182 36">
<path fill="#9c6" d="M141.6,21.5c0-0.1,0.1-0.3,0.1-0.4c0.1-0.1,0.2-0.1,0.4-0.1h3.2c0.1,0,0.3,0.1,0.4,0.1c0.1,0.1,0.2,0.2,0.2,0.4v2.9c0,0.1-0.1,0.3-0.1,0.4c-0.1,0.1-0.2,0.2-0.4,0.2h-3.3c-0.4,0-0.5-0.2-0.5-0.6L141.6,21.5L141.6,21.5z M5.6,32.5c-0.1-0.1-0.2-0.2-0.3-0.3c0-0.1,0-0.3,0.1-0.4L7.3,29c0.1-0.1,0.2-0.2,0.3-0.2c0.1,0,0.3,0,0.4,0.1c1.4,0.9,3,1.6,4.6,2.1c1.7,0.4,3.4,0.7,5.1,0.7c1.7,0,3.4-0.2,5.1-0.7c1.6-0.5,3.2-1.2,4.6-2.1c0.1-0.1,0.2-0.1,0.3-0.1c0.1,0,0.3,0.1,0.3,0.2l1.8,2.9c0.1,0.1,0.1,0.3,0.1,0.4c0,0.1-0.1,0.3-0.3,0.3c-1.8,1.1-3.7,2-5.7,2.5C22,35.7,19.9,36,17.7,36s-4.3-0.3-6.4-0.9C9.3,34.5,7.4,33.7,5.6,32.5L5.6,32.5L5.6,32.5z"/>
<path fill="#171725" d="M174.5,12.6c-0.3,0-0.6,0.1-0.9,0.2c-0.3,0.1-0.6,0.3-0.8,0.5c-0.3,0.2-0.5,0.4-0.7,0.7c-0.2,0.2-0.4,0.5-0.5,0.8h6.2c-0.2-0.3-0.3-0.6-0.5-0.8c-0.2-0.3-0.4-0.5-0.7-0.7c-0.2-0.2-0.5-0.4-0.8-0.5C175.3,12.7,174.9,12.6,174.5,12.6L174.5,12.6z M180.3,22.7c-0.7,0.7-1.5,1.2-2.4,1.6c-0.9,0.4-1.8,0.6-2.8,0.6c-1.1,0-2.1-0.2-3.1-0.6c-1-0.4-1.8-1-2.6-1.7c-0.7-0.7-1.3-1.6-1.8-2.5c-0.5-1-0.7-2.1-0.7-3.2c0-0.7,0.1-1.4,0.3-2.1c0.2-0.7,0.4-1.3,0.7-1.9c0.3-0.6,0.7-1.1,1.2-1.6c0.4-0.5,1-0.9,1.6-1.2c0.6-0.4,1.2-0.6,1.8-0.8c0.7-0.2,1.4-0.3,2.1-0.3c0.7,0,1.3,0.1,2,0.3c0.6,0.2,1.2,0.4,1.8,0.8c0.6,0.3,1.1,0.7,1.5,1.2c0.4,0.5,0.8,1,1.2,1.5c0.3,0.5,0.6,1.1,0.8,1.7c0.2,0.6,0.3,1.3,0.3,1.9v1c0,0.2-0.1,0.5-0.2,0.7c-0.2,0.2-0.4,0.3-0.6,0.3c-0.4,0.1-0.8,0.1-1.2,0.1h-8.7c0.1,0.5,0.2,0.9,0.5,1.3c0.2,0.3,0.5,0.6,0.8,0.8c0.3,0.2,0.7,0.3,1,0.5c0.3,0.1,0.7,0.1,1,0.1c0.3,0,0.6,0,0.9-0.1c0.3-0.1,0.6-0.1,0.9-0.3c0.3-0.1,0.5-0.2,0.8-0.3c0.2-0.1,0.4-0.2,0.6-0.4c0.1-0.1,0.3-0.2,0.3-0.3c0.1-0.1,0.2-0.1,0.3-0.1c0.1,0,0.2,0.1,0.3,0.1c0.1,0.1,0.3,0.2,0.4,0.3l1.3,1.4c0,0.1,0.1,0.2,0.2,0.3c0,0.1,0.1,0.2,0.1,0.3c0,0.1,0,0.3-0.1,0.4C180.6,22.6,180.5,22.6,180.3,22.7L180.3,22.7z M152.6,16.9c0,0.5,0.1,1,0.3,1.5c0.2,0.4,0.4,0.9,0.7,1.2c0.3,0.3,0.7,0.6,1.1,0.8c0.9,0.3,1.9,0.3,2.9,0c0.4-0.2,0.8-0.4,1.2-0.8c0.3-0.4,0.6-0.7,0.8-1.2c0.2-0.5,0.3-0.9,0.3-1.4v-0.4c0-0.5-0.1-1-0.3-1.4c-0.2-0.5-0.5-0.9-0.8-1.2c-0.3-0.3-0.7-0.6-1.2-0.8c-0.5-0.2-0.9-0.3-1.4-0.3c-0.5,0-1,0.1-1.4,0.3c-0.4,0.2-0.8,0.5-1.1,0.8c-0.3,0.4-0.6,0.8-0.7,1.2C152.7,15.9,152.6,16.4,152.6,16.9L152.6,16.9L152.6,16.9z M159.5,24.1c0.1-0.1,0.1-0.3,0.1-0.5v-1c-0.2,0.3-0.5,0.5-0.7,0.7c-0.2,0.2-0.5,0.5-0.8,0.7c-0.3,0.2-0.6,0.3-1,0.5c-0.4,0.1-0.9,0.2-1.3,0.2c-1,0-2.1-0.2-3.1-0.6c-0.9-0.4-1.7-0.9-2.4-1.6c-0.7-0.7-1.2-1.5-1.6-2.4c-0.4-1-0.6-2-0.6-3.1c0-2.1,0.8-4.1,2.1-5.7c0.7-0.7,1.5-1.3,2.4-1.7c1-0.4,2-0.6,3.1-0.6c0.5,0,0.9,0.1,1.4,0.2c0.4,0.1,0.8,0.3,1.1,0.5c0.3,0.2,0.6,0.4,0.9,0.7c0.3,0.3,0.5,0.6,0.8,0.8l0.3-1.1c0.1-0.1,0.1-0.3,0.1-0.4c0.1-0.1,0.1-0.2,0.1-0.3c0.1-0.1,0.2-0.1,0.3-0.2c0.1-0.1,0.3-0.1,0.4-0.1h1.8c0.1,0,0.2,0,0.3,0.1c0.1,0,0.2,0.1,0.3,0.2c0.1,0.1,0.2,0.2,0.2,0.3c0.1,0.1,0.1,0.3,0.1,0.4v12.4c0,1.2-0.2,2.3-0.7,3.4c-0.4,0.9-0.9,1.8-1.7,2.5c-0.7,0.7-1.6,1.2-2.5,1.6c-1,0.3-2.1,0.5-3.1,0.5c-0.5,0-1-0.1-1.4-0.1c-0.5-0.1-1-0.2-1.5-0.3c-0.5-0.1-1-0.3-1.4-0.6c-0.4-0.2-0.9-0.5-1.2-0.8c-0.1-0.1-0.2-0.2-0.3-0.3c-0.1-0.1-0.1-0.3-0.1-0.5c0-0.2,0.1-0.5,0.3-0.7l1.2-1.6c0.1-0.1,0.2-0.2,0.3-0.3c0.1-0.1,0.2-0.1,0.3-0.1c0.2,0,0.5,0.1,0.7,0.3c0.2,0.2,0.5,0.3,0.7,0.5c0.3,0.1,0.5,0.2,0.8,0.3c0.3,0.1,0.6,0.1,0.8,0.1h0.7c0.4,0,0.8-0.1,1.2-0.1c0.4-0.1,0.8-0.2,1.1-0.5c0.3-0.2,0.7-0.4,0.9-0.7C159.2,24.8,159.4,24.5,159.5,24.1L159.5,24.1z M23.1,16.9c0,0.5,0.1,1,0.3,1.5c0.2,0.4,0.4,0.9,0.7,1.2c0.3,0.3,0.7,0.6,1.1,0.8c0.4,0.2,0.9,0.3,1.4,0.3c0.5,0,1-0.1,1.4-0.3c0.4-0.2,0.8-0.4,1.1-0.8c0.3-0.3,0.6-0.8,0.7-1.2c0.2-0.5,0.2-1,0.3-1.5c0-0.5-0.1-1-0.3-1.5c-0.1-0.5-0.4-0.9-0.7-1.2c-0.6-0.7-1.6-1.2-2.5-1.2c-0.5,0-1,0.1-1.4,0.3c-0.4,0.2-0.8,0.5-1.1,0.8c-0.3,0.4-0.6,0.8-0.7,1.2C23.2,15.9,23.1,16.4,23.1,16.9L23.1,16.9z M18.7,16.9c0-0.7,0.1-1.4,0.3-2.1c0.2-0.7,0.4-1.3,0.8-1.9c0.4-0.6,0.8-1.1,1.2-1.6c0.5-0.5,1-0.9,1.6-1.2c0.6-0.3,1.2-0.6,1.9-0.8C25.2,9,25.9,9,26.6,9c1.1,0,2.1,0.2,3.1,0.6c1.9,0.8,3.4,2.3,4.2,4.2c0.4,1,0.6,2.1,0.7,3.1c0,0.7-0.1,1.4-0.3,2.2c-0.2,0.7-0.5,1.3-0.8,1.9c-0.4,0.6-0.8,1.1-1.2,1.6c-0.5,0.5-1,0.9-1.6,1.2c-0.6,0.3-1.2,0.6-1.9,0.8c-0.7,0.2-1.4,0.3-2.2,0.3c-0.7,0-1.4-0.1-2.1-0.3c-0.7-0.2-1.3-0.4-1.9-0.8c-0.6-0.4-1.1-0.8-1.6-1.2c-0.5-0.5-0.9-1-1.2-1.6c-0.4-0.6-0.7-1.2-0.8-1.9C18.8,18.4,18.7,17.6,18.7,16.9L18.7,16.9z M4.4,17.3c0,0.5,0.1,1,0.3,1.5c0.2,0.4,0.4,0.9,0.7,1.2c0.3,0.3,0.7,0.6,1.1,0.8c0.5,0.2,0.9,0.3,1.4,0.3c0.5,0,1-0.1,1.4-0.3c0.4-0.2,0.8-0.4,1.2-0.8c0.3-0.4,0.6-0.7,0.8-1.2c0.2-0.4,0.3-0.9,0.3-1.4v-0.2c0-1-0.3-2-1-2.7c-0.3-0.4-0.8-0.7-1.2-0.8c-0.5-0.2-1-0.3-1.5-0.3c-0.5,0-1,0.1-1.4,0.3C6,14,5.7,14.3,5.3,14.6C5,15,4.8,15.4,4.6,15.9C4.4,16.3,4.3,16.8,4.4,17.3L4.4,17.3z M11.5,23.5c-0.2,0.2-0.5,0.4-0.7,0.7c-0.3,0.2-0.6,0.4-0.9,0.6c-0.3,0.2-0.7,0.3-1,0.4c-0.4,0.1-0.8,0.2-1.2,0.1c-1.1,0-2.1-0.2-3.1-0.7c-0.9-0.4-1.7-1-2.4-1.7C0.8,21.4,0,19.4,0,17.3c0-2.1,0.8-4.1,2.1-5.7c0.7-0.7,1.5-1.3,2.4-1.7c1-0.4,2-0.6,3.1-0.6c0.4,0,0.8,0.1,1.2,0.1c0.3,0.1,0.7,0.2,1,0.3c0.3,0.1,0.6,0.3,0.8,0.5c0.3,0.2,0.5,0.4,0.7,0.7V5.9c0-0.2,0.1-0.5,0.3-0.6C11.8,5.1,12,5,12.3,5h0c0,0,0.1,0,0.1,0h2.7c0.1,0,0.2,0,0.3,0.1c0.1,0.1,0.2,0.1,0.3,0.2L16,5.5c0.1,0.1,0.1,0.3,0.1,0.4v18.2c0,0.7-0.3,0.9-1,0.9h-2.4c-0.1,0-0.3,0-0.4-0.1l-0.2-0.2c-0.1-0.1-0.1-0.2-0.2-0.3l-0.2-0.4L11.5,23.5L11.5,23.5z M133.6,11.2c0-0.2,0.1-0.5,0.2-0.7c0.2-0.2,0.4-0.3,0.6-0.3h2.8c0.1,0,0.2,0,0.3,0.1c0.1,0.1,0.2,0.1,0.3,0.2c0.1,0.1,0.2,0.2,0.3,0.3c0.1,0.1,0.1,0.3,0.1,0.4v13.4c0,0.3-0.1,0.5-0.3,0.7c-0.2,0.2-0.5,0.3-0.7,0.3h-2.8c-0.5,0.1-0.9-0.3-0.9-0.7c0-0.1,0-0.1,0-0.2V11.2L133.6,11.2z M126.5,17.3c0-0.5-0.1-1-0.3-1.5c-0.2-0.5-0.4-0.9-0.7-1.2c-0.6-0.7-1.6-1.2-2.5-1.2c-0.5,0-1,0.1-1.5,0.3c-0.5,0.2-0.9,0.5-1.2,0.8c-0.3,0.4-0.6,0.8-0.8,1.2c-0.2,0.5-0.3,1-0.3,1.5v0.2c0,0.5,0.1,1,0.3,1.4c0.2,0.5,0.5,0.9,0.8,1.2c0.3,0.3,0.7,0.6,1.2,0.8c0.5,0.2,0.9,0.3,1.4,0.3c0.5,0,1-0.1,1.4-0.3c0.4-0.2,0.8-0.4,1.1-0.8c0.3-0.4,0.6-0.8,0.7-1.2C126.4,18.3,126.5,17.8,126.5,17.3L126.5,17.3L126.5,17.3z M119.2,24.1l-0.2,0.4c-0.1,0.1-0.1,0.2-0.1,0.3l-0.2,0.2c-0.1,0.1-0.2,0.1-0.4,0.1h-2.4c-0.7,0-1-0.3-1-0.9V5.9c0-0.1,0-0.3,0.1-0.4c0-0.1,0.1-0.2,0.2-0.3c0.1-0.1,0.2-0.1,0.3-0.2c0.1-0.1,0.2-0.1,0.3-0.1h2.7c0.3,0,0.5,0.1,0.7,0.3c0.2,0.2,0.3,0.4,0.3,0.7V11c0.2-0.3,0.4-0.5,0.7-0.7c0.3-0.2,0.5-0.4,0.8-0.5c0.3-0.1,0.6-0.2,1-0.3c0.4-0.1,0.8-0.1,1.2-0.1c1,0,2.1,0.2,3.1,0.6c0.9,0.4,1.7,1,2.4,1.7c1.4,1.6,2.2,3.6,2.1,5.7c0,2.1-0.8,4.1-2.1,5.7c-0.7,0.7-1.5,1.3-2.4,1.7c-1,0.4-2,0.6-3.1,0.7c-0.4,0-0.8-0.1-1.2-0.1c-0.4-0.1-0.7-0.3-1-0.4c-0.3-0.2-0.7-0.4-0.9-0.6c-0.3-0.2-0.5-0.4-0.7-0.7L119.2,24.1L119.2,24.1z M105,12.6c-0.3,0-0.6,0.1-0.9,0.2c-0.3,0.1-0.6,0.3-0.8,0.5c-0.3,0.2-0.5,0.4-0.7,0.7c-0.2,0.2-0.4,0.5-0.5,0.8h6.2c-0.2-0.3-0.3-0.6-0.5-0.8c-0.2-0.3-0.4-0.5-0.7-0.7c-0.2-0.2-0.5-0.4-0.8-0.5C105.8,12.7,105.4,12.6,105,12.6L105,12.6z M110.9,22.7c-0.7,0.7-1.5,1.2-2.4,1.6c-0.9,0.4-1.8,0.6-2.8,0.6c-1.1,0-2.1-0.2-3.1-0.6c-1-0.4-1.8-1-2.6-1.7c-0.7-0.7-1.3-1.6-1.8-2.5c-0.5-1-0.7-2.1-0.7-3.2c0-0.7,0.1-1.4,0.3-2.1c0.2-0.7,0.4-1.3,0.7-1.9c0.3-0.6,0.7-1.1,1.2-1.6c0.4-0.5,1-0.9,1.6-1.2c0.6-0.4,1.2-0.6,1.8-0.8c0.7-0.2,1.4-0.3,2.1-0.3c0.7,0,1.3,0.1,2,0.3c0.6,0.2,1.2,0.4,1.8,0.8c0.6,0.3,1.1,0.7,1.5,1.2c0.4,0.5,0.8,1,1.2,1.5c0.3,0.5,0.6,1.1,0.8,1.7c0.2,0.6,0.3,1.3,0.3,1.9v1c0,0.2-0.1,0.5-0.2,0.7c-0.2,0.2-0.4,0.3-0.6,0.3c-0.4,0.1-0.8,0.1-1.2,0.1h-8.7c0.1,0.5,0.2,0.9,0.5,1.3c0.2,0.3,0.5,0.6,0.8,0.8c0.3,0.2,0.7,0.3,1,0.5c0.3,0.1,0.7,0.1,1,0.1c0.3,0,0.6,0,0.9-0.1c0.3-0.1,0.6-0.1,0.9-0.3c0.3-0.1,0.5-0.2,0.8-0.3c0.2-0.1,0.4-0.2,0.6-0.4c0.1-0.1,0.3-0.2,0.3-0.3c0.1-0.1,0.2-0.1,0.3-0.1c0.1,0,0.2,0.1,0.3,0.1c0.1,0.1,0.3,0.2,0.4,0.3l1.3,1.4c0,0.1,0.1,0.2,0.2,0.3c0,0.1,0.1,0.2,0.1,0.3c0,0.1,0,0.3-0.1,0.4C111.1,22.6,111,22.6,110.9,22.7L110.9,22.7z M80.7,9.5c0.1-0.1,0.2-0.1,0.3-0.2c0.1,0,0.2-0.1,0.3-0.1h1.8c0.1,0,0.3,0,0.4,0.1c0.1,0,0.2,0.1,0.3,0.2c0.1,0.1,0.1,0.2,0.2,0.3c0.1,0.1,0.1,0.3,0.1,0.3l0.3,1c0.2-0.3,0.3-0.6,0.6-0.8c0.3-0.3,0.6-0.5,1-0.7c0.4-0.2,0.9-0.4,1.4-0.5C87.9,9,88.5,9,89.1,9c0.9,0,1.7,0.2,2.5,0.5c0.7,0.3,1.3,0.8,1.8,1.4c0.5,0.6,0.9,1.4,1.2,2.2c0.3,0.8,0.4,1.7,0.4,2.6v8.1c0,0.3-0.1,0.5-0.2,0.7c-0.2,0.2-0.4,0.3-0.7,0.3h-2.8c-0.3,0-0.5,0-0.7-0.2c-0.2-0.2-0.2-0.4-0.2-0.7v-7.9c0-0.3-0.1-0.7-0.3-1c-0.2-0.3-0.4-0.6-0.7-0.8c-0.2-0.3-0.5-0.5-0.8-0.6c-0.3-0.1-0.6-0.2-1-0.2c-0.3,0-0.6,0.1-0.9,0.2c-0.3,0.1-0.6,0.3-0.8,0.5c-0.2,0.2-0.5,0.5-0.7,0.8c-0.2,0.3-0.3,0.7-0.3,1v7.9c0,0.1,0,0.3-0.1,0.4c0,0.1-0.1,0.2-0.3,0.3c-0.1,0.1-0.2,0.1-0.3,0.1c-0.1,0-0.2,0-0.3,0.1h-2.7c-0.3,0-0.6-0.1-0.8-0.3c-0.2-0.2-0.2-0.4-0.3-0.6V10.2c0-0.2,0.1-0.3,0.1-0.5c0.1-0.1,0.2-0.2,0.3-0.3L80.7,9.5L80.7,9.5z M70.3,12.6c-0.3,0-0.6,0.1-0.9,0.2c-0.3,0.1-0.6,0.3-0.8,0.5c-0.3,0.2-0.5,0.4-0.7,0.7c-0.2,0.2-0.4,0.5-0.5,0.8h6.2c-0.2-0.3-0.3-0.6-0.5-0.8c-0.2-0.3-0.4-0.5-0.7-0.7c-0.2-0.2-0.5-0.4-0.8-0.5C71.1,12.7,70.7,12.6,70.3,12.6L70.3,12.6z M76.1,22.7c-0.7,0.7-1.5,1.2-2.4,1.6c-0.9,0.4-1.8,0.6-2.8,0.6c-1.1,0-2.1-0.2-3.1-0.6c-1-0.4-1.8-1-2.6-1.7c-0.7-0.7-1.3-1.6-1.8-2.5c-0.5-1-0.7-2.1-0.7-3.2c0-0.7,0.1-1.4,0.3-2.1c0.2-0.7,0.4-1.3,0.7-1.9c0.3-0.6,0.7-1.1,1.2-1.6c0.4-0.5,1-0.9,1.6-1.2c0.6-0.4,1.2-0.6,1.8-0.8C69,9.1,69.7,9,70.4,9c0.7,0,1.3,0.1,2,0.3c0.6,0.2,1.2,0.4,1.8,0.8c0.6,0.3,1.1,0.7,1.5,1.2c0.4,0.5,0.8,1,1.2,1.5c0.3,0.5,0.6,1.1,0.8,1.7c0.2,0.6,0.3,1.3,0.3,1.9v1c0,0.2-0.1,0.5-0.2,0.7c-0.2,0.2-0.4,0.3-0.6,0.3c-0.4,0.1-0.8,0.1-1.2,0.1h-8.7c0.1,0.5,0.2,0.9,0.5,1.3c0.2,0.3,0.5,0.6,0.8,0.8c0.3,0.2,0.7,0.3,1,0.5c0.3,0.1,0.7,0.1,1,0.1c0.3,0,0.6,0,0.9-0.1c0.3-0.1,0.6-0.1,0.9-0.3c0.3-0.1,0.5-0.2,0.8-0.3c0.2-0.1,0.4-0.2,0.6-0.4c0.1-0.1,0.3-0.2,0.3-0.3c0.1-0.1,0.2-0.1,0.3-0.1c0.1,0,0.2,0.1,0.3,0.1c0.1,0.1,0.3,0.2,0.4,0.3l1.3,1.4c0,0.1,0.1,0.2,0.2,0.3c0,0.1,0.1,0.2,0.1,0.3c0,0.1,0,0.3-0.1,0.4C76.4,22.6,76.3,22.6,76.1,22.7L76.1,22.7z M37.8,9.6c0.1-0.1,0.2-0.1,0.3-0.2c0.1,0,0.2-0.1,0.3-0.1h1.8c0.1,0,0.3,0,0.4,0.1c0.1,0,0.2,0.1,0.3,0.2c0.1,0.1,0.1,0.2,0.2,0.3c0.1,0.1,0.1,0.3,0.1,0.3l0.3,1c0.1-0.3,0.3-0.5,0.5-0.8c0.2-0.3,0.5-0.5,0.8-0.7c0.4-0.2,0.8-0.4,1.2-0.5C44.7,9.1,45.2,9,45.8,9c0.5,0,0.9,0,1.4,0.1c0.4,0.1,0.8,0.3,1.2,0.5c0.3,0.2,0.6,0.4,0.9,0.7c0.3,0.3,0.6,0.6,0.8,1c0.2-0.3,0.4-0.6,0.7-0.8c0.3-0.3,0.7-0.6,1.1-0.8c0.4-0.2,0.9-0.4,1.4-0.6C53.8,9,54.4,9,54.9,9c0.8,0,1.7,0.2,2.4,0.5c0.7,0.3,1.3,0.8,1.7,1.4c0.5,0.6,0.8,1.4,1,2.2c0.2,0.9,0.3,1.7,0.3,2.6v8.1c0,0.3-0.1,0.5-0.2,0.7c-0.2,0.2-0.4,0.3-0.7,0.3h-2.8c-0.3,0-0.5,0-0.7-0.2c-0.2-0.2-0.2-0.4-0.2-0.7v-8.1c0-0.3-0.1-0.7-0.1-1c-0.1-0.3-0.3-0.6-0.5-0.8c-0.2-0.2-0.5-0.4-0.7-0.5c-0.3-0.1-0.6-0.2-0.9-0.2c-0.3,0-0.6,0.1-0.8,0.2c-0.3,0.1-0.5,0.3-0.7,0.5c-0.2,0.2-0.4,0.5-0.5,0.8c-0.1,0.3-0.2,0.6-0.2,1v7.9c0,0.3-0.1,0.5-0.2,0.7c-0.2,0.2-0.4,0.3-0.7,0.3h-2.8c-0.3,0-0.5,0-0.7-0.2c-0.2-0.2-0.2-0.4-0.2-0.7v-8.1c0-0.3-0.1-0.7-0.1-1c-0.1-0.3-0.3-0.6-0.5-0.8c-0.2-0.2-0.4-0.4-0.7-0.5c-0.3-0.1-0.6-0.2-0.9-0.2c-0.3,0-0.6,0.1-0.8,0.2c-0.3,0.1-0.6,0.3-0.8,0.5c-0.2,0.2-0.4,0.5-0.6,0.8c-0.1,0.3-0.2,0.6-0.3,1v8c0,0.1,0,0.3-0.1,0.4c0,0.1-0.1,0.2-0.3,0.3c-0.1,0.1-0.2,0.1-0.3,0.1c-0.1,0-0.2,0-0.3,0.1h-2.7c-0.3,0-0.6-0.1-0.8-0.3c-0.2-0.2-0.2-0.4-0.3-0.7V10.3c0-0.2,0.1-0.3,0.1-0.5C37.6,9.7,37.7,9.6,37.8,9.6L37.8,9.6L37.8,9.6z"/>
</svg>