<svg xmlns="http://www.w3.org/2000/svg" viewBox="0 0 194 168">
<path fill="#F4F4F7" d="M98,163.2c11.7,0,22.7-2.7,32.6-7.4c6.2,2.3,13.4,1.5,19.1-2.8c14.1,14.1,13.4,14,15.3,14c2.8-0.1,4.3-3.4,2.3-5.5l-13.1-13.2c3-4.3,4.1-9.4,3.4-14.4c10-12.9,15.9-29,15.9-46.6c0-41.9-33.9-75.9-75.6-75.9c-41.8,0-75.6,34-75.6,75.9C22.4,129.1,56.2,163.1,98,163.2L98,163.2z"/>
<path fill="#F1F4FA" d="M147.7,75.1V119c-6.8-3.9-15.6-3.7-22.2,1.3c-5.6,4.2-8.4,10.8-8.1,17.3H52.5c-3.4,0-6.2-2.8-6.2-6.3V75.1c0-3.4,2.8-6.3,6.2-6.3h88.9C145.1,68.8,147.7,71.5,147.7,75.1L147.7,75.1z M191.6,68.5c2.6-2.3,2.7-6.2,0.5-8.8c-2.3-2.6-6.2-2.8-8.7-0.5c-2.5,2.3-2.7,6.2-0.5,8.8C185.2,70.7,189,70.8,191.6,68.5L191.6,68.5z M192.1,41c1-0.9,1.1-2.6,0.2-3.6c-0.9-1-2.6-1.1-3.6-0.2c-1,1-1.1,2.6-0.2,3.6C189.4,42,191,42,192.1,41L192.1,41z M126.7,3.1c0.7-0.7,0.8-1.8,0.2-2.5c-0.6-0.7-1.8-0.8-2.5-0.2c-0.7,0.6-0.8,1.8-0.2,2.5C124.9,3.7,126,3.8,126.7,3.1L126.7,3.1z"/>
<path fill="#E9EAF3" d="M117.3,136.6H52.5c-2.9,0-5.3-2.4-5.3-5.3V87.9h7c-0.1,1.5,0.8,2.9,2.2,3.3l34.2,10c1.7,0.5,3.6-0.3,4.1-2.1l6.1-21.7l1.6-1.3c2.8-2.3,6.3-3.6,9.8-3.6h28l6.5,3.8v42.1c-6.6-3.3-14.9-2.9-21.2,1.9C120.1,124.3,117.3,130.4,117.3,136.6L117.3,136.6z"/>
<path fill="#FFFFFF" d="M37.7,21.9l25.5,26.5c0.9,0.9,0.8,2.4-0.2,3.3L37.1,76.2c-0.9,0.9-2.4,0.8-3.3-0.2L1.6,41.7c-0.9-0.9-0.8-2.4,0.2-3.3l18.7-17.7L37.7,21.9L37.7,21.9z M137.5,122.7c-7.7,0-13.9,6.2-13.9,13.9c0,7.7,6.2,14,13.9,14c7.4,0.2,14.1-6.5,13.8-14C151.4,128.9,145.2,122.8,137.5,122.7L137.5,122.7z M179.9,39l-22.2,39.5c-0.7,1.3-2.5,1.7-3.7,0.9l-37.8-22.1c-1.3-0.8-1.7-2.5-0.9-3.8l29.2-50.3c0.8-1.3,2.5-1.7,3.8-0.9l27.5,16.1L179.9,39L179.9,39z M183.8,123.8L157.8,138c1.1-17.1-18.4-28.1-32.4-17.6c-11.2,8.4-10.7,25.3,0.6,33.1H52.8c-3.9,0-7.1-3-7.8-6.9L37.2,105c-0.8-4.3,3.3-8.9,7.7-8.9h31.7l-19.8-5.8c-1.1-0.3-1.8-1.5-1.5-2.7l13.3-45.4c0.3-1.1,1.5-1.8,2.7-1.5l25,7.3l7.3,15.7L95.1,94c0.8-0.5,1.5-1,2.2-1.6l9.8-8c2.8-2.3,6.2-3.6,9.8-3.6h37.5c4.4,0,8.3,4.6,7.5,9.1l-0.1,0.8l13.3-7.1c1.1-0.6,2.4-0.2,3,0.9l11.7,22.9L183.8,123.8L183.8,123.8z"/>
<path fill="#E4E5ED" fill-rule="evenodd" clip-rule="evenodd" d="M154.6,81.9c3.9,0,7.2,4.2,6.5,7.9l-6.5,34.1c-4.2-5.6-10.6-8.6-17.1-8.6c-11.7,0-21.3,9.6-21.3,21.4c0,6,2.5,11.7,7,15.8H52.9c-3.4,0-6.2-2.6-6.8-6l-7.7-41.1c-0.7-3.9,3.1-8.2,6.6-8.2h0h42.7c4.4,0,7.6-1.5,10.5-3.8l9.8-8c2.6-2.1,5.8-3.4,9.1-3.4L154.6,81.9L154.6,81.9z M168.1,160.8c0.8,0.8,1.2,1.9,1.2,3c0,2.4-1.9,4.3-4.3,4.3c-1.1,0-2.2-0.5-3-1.3l-12.4-12.4c-3.7,2.5-7.9,3.7-12,3.7c-2.4,0-4.7-0.4-7-1.2c-9.9,4.7-21,7.3-32.6,7.3c-13.1,0-25.9-3.3-37.3-9.7h-7.9c-4.4,0-8-3.4-8.8-7.7l-1.1-6c-13.3-13.8-21.5-32.5-21.5-53.2c0-6.8,0.9-13.7,2.7-20.4L0.9,42.3c-1.2-1.3-1.1-3.4,0.2-4.7l19.1-18l18,1.3l8.7,9.1C60.4,17.8,78.3,10.4,98,10.4c13,0,25.2,3.2,35.9,9l9.7-16.6c1.1-1.9,3.3-2.3,5.1-1.3l27.9,16.4l4.4,21.3l-11.4,20.4c2.8,7.3,4.6,15.2,5,23.4l0.2-0.1c1.6-0.8,3.4-0.4,4.2,1.2l12,23.5l-6.4,17.1l-25.8,14.1c-0.3,3.3-1.4,6.6-3.3,9.6L168.1,160.8L168.1,160.8z M163.4,165.3c0.4,0.4,1,0.7,1.6,0.7c1.2,0,2.3-1,2.3-2.3c0-0.6-0.2-1.2-0.6-1.6L153,148.4c9.2-13.2,0.8-30.9-15.2-31.1c-10.8-0.1-19.5,8.6-19.5,19.4c0,10.7,8.6,19.3,19.3,19.4c4.8,0,8.4-1.5,12.2-4.4L163.4,165.3L163.4,165.3z M152.3,136.7c0-8.2-6.4-14.9-14.7-14.9c-8.2,0-14.9,6.7-14.9,14.9v0c0,8.3,6.7,15,14.8,15C145.6,151.6,152.3,144.9,152.3,136.7L152.3,136.7z M150.3,136.7c0,7.2-5.8,13-12.9,13c-7.1-0.1-12.8-5.8-12.8-13c0-7.2,5.8-13,12.9-13C144.8,123.8,150.3,129.4,150.3,136.7L150.3,136.7z M178.8,38.8l-22,39.1c-0.5,0.8-1.6,1.1-2.4,0.6l-37.8-22.1c-0.9-0.5-1.1-1.6-0.6-2.4l29.2-50.3c0,0,1-1.4,2.4-0.6l27.1,15.9L178.8,38.8L178.8,38.8z M37.2,22.9L62.4,49c0.5,0.5,0.4,1.4-0.1,1.9L36.4,75.4c-0.5,0.5-1.4,0.4-1.9-0.1L2.4,41c-0.5-0.5-0.4-1.4,0.1-1.9l18.4-17.4L37.2,22.9L37.2,22.9z M183,123.1l-24.1,13.2c-0.1-3.2-1.1-7.2-2.7-10l6.6-34.9l12.9-6.8c0.6-0.3,1.3-0.2,1.5,0.4l11.6,22.6L183,123.1L183,123.1z M98,162.2c-11.9,0-23.1-2.8-33-7.7h60.8c0.8,0.5,1.6,1,2.4,1.4C118.6,160,108.4,162.2,98,162.2L98,162.2z M102.6,63.7l-8.3,29.7c-2.1,1.1-4.4,1.7-6.8,1.7H76.7L57,89.3c-0.8-0.2-0.9-1-0.7-1.6l13.3-45.3c0.2-0.8,1-0.9,1.5-0.8l24.5,7.1L102.6,63.7L102.6,63.7z M97,47.1l-25.3-7.3c-1.7-0.5-3.5,0.3-4.1,2.1L54.4,87.2c-0.5,1.7,0.3,3.5,2.1,4.1l13.2,3.9H44.9c-5.2,0-9.5,5.5-8.6,10.3l5.9,31.7c-11.7-13.2-18.8-30.5-18.9-49.6c0-6.1,0.7-12.5,2.3-18.7l7.4,7.9c1.2,1.3,3.3,1.4,4.6,0.2l26-24.5c1.3-1.3,1.4-3.4,0.2-4.7L48.2,31.5C61.4,19.6,78.9,12.4,98,12.4c12.6,0,24.5,3.1,34.9,8.7l-18.6,32c-1,1.7-0.5,4.1,1.3,5.1l37.1,21.7H117c-3.8,0-7.4,1.4-10.4,3.8l-9.7,7.9l7.8-28.1L97,47.1L97,47.1z M168.2,61.8c2.5,7,4,14.4,4.4,22.1l-9.4,5c0.1-3.9-2.2-7.4-6-8.6c0.6-0.3,1.1-0.7,1.4-1.3L168.2,61.8L168.2,61.8z"/>
<path fill="#D7DCE8" d="M167.5,103.4c0.5,0.2,0.9,0.5,1.4,0.6c0.5,0.2,1,0.5,1.4,0.9l1.2,1.3c0.4,0.5,0.8,1,1.1,1.6c0.4,0.7,0.7,1.5,0.8,2.4c0.1,0.8,0.1,1.6,0,2.4c-0.3,0.6-0.5,1.4-0.8,1.9c-0.5,0.6-1.1,1-1.7,1.4c-0.6,0.4-1.3,0.6-2,0.6c-0.6,0.2-1.3,0.2-1.9,0c-0.6-0.2-1.1-0.3-1.6-0.5l-1.4-0.6c-0.3-0.2-0.8-0.3-1.1-0.5c-0.4-0.2-0.8-0.1-1.1,0.2l-2.2,0.8l-1.3-2.4l2.2-1.4c0.4-0.3,0.8-0.4,1.3-0.3c0.5,0,1,0.1,1.4,0.3c0.4,0.2,0.9,0.4,1.3,0.6c0.5,0.2,0.9,0.5,1.4,0.6c0.5,0.2,0.9,0.3,1.4,0.3c0.6,0,1.1-0.2,1.6-0.5c0.6-0.3,1.1-0.9,1.2-1.6c0.2-0.3,0-0.6,0-1.1c-0.1-0.4-0.3-0.8-0.5-1.1c-0.2-0.5-0.6-0.8-0.9-1.4c-0.2-0.2-0.6-0.6-0.9-0.6c-0.2-0.2-0.6-0.3-0.6-0.5c-0.2-0.2-0.3-0.2-0.5-0.5c-0.2-0.3-0.2-0.6,0-0.9L167.5,103.4L167.5,103.4z M146.7,76.4l2,1.2v3.3h-2V76.4L146.7,76.4z M45.3,95.1l2,0v-20c0-2.9,2.4-5.3,5.3-5.3h6.9l0.6-2h-7.6c-4,0-7.2,3.3-7.2,7.2V95.1L45.3,95.1z M102.9,69.8l0.6-2H132l3.4,2H102.9L102.9,69.8z M189.9,107.5l-9.1,4.7c-1.3,0.7-1.7,2.3-1.1,3.6l4.1,8L189.9,107.5L189.9,107.5z M175.7,18.5l-6.4,10.7c-0.9,1.5-0.4,3.5,1.1,4.4l9.5,5.5L175.7,18.5L175.7,18.5z M149.4,28.7c0.6-0.1,1.1-0.2,1.7-0.2h1.9c0.6,0.2,1.4,0.3,2,0.5c0.8,0.3,1.4,0.6,2,0.9c0.9,0.5,1.8,1.1,2.5,1.9c0.7,0.7,1.2,1.6,1.4,2.5c0.3,0.9,0.4,1.8,0.3,2.7c-0.3,1.9-1.1,3.6-2.5,4.9c-0.6,0.5-1.2,0.8-1.9,1.1c-0.6,0.3-1.2,0.5-1.9,0.5l-1.7,0.2c-0.5,0-1.1,0.1-1.6,0.3c-0.4,0.1-0.8,0.3-1.1,0.6l-1.7,2.4l-3-1.6l1.2-3c0.2-0.5,0.5-0.9,0.9-1.3c0.4-0.3,0.9-0.5,1.4-0.6c0.6-0.2,1.1-0.2,1.7-0.3c0.6,0,1.3-0.1,1.9-0.3c0.6-0.1,1.2-0.3,1.7-0.6c0.6-0.3,1-0.8,1.3-1.4c0.2-0.4,0.3-0.8,0.5-1.3c0-0.4,0-0.8-0.2-1.1c-0.1-0.4-0.3-0.8-0.6-1.1c-0.3-0.4-0.7-0.7-1.1-0.9c-0.5-0.4-1.1-0.6-1.7-0.8c-0.5-0.1-0.9-0.2-1.4-0.2h-1.1c-0.2,0-0.4,0-0.6-0.2c-0.3-0.2-0.6-0.5-0.6-0.9L149.4,28.7L149.4,28.7z M140.8,50.8c0.2-0.4,0.5-0.7,0.8-0.9c0.3-0.2,0.6-0.5,0.9-0.5c0.8-0.2,1.6-0.1,2.3,0.3c0.3,0.2,0.7,0.5,0.9,0.8l0.5,0.9c0.4,1.6-0.5,3.3-2,3.8c-0.8,0.1-1.6,0-2.3-0.3c-0.3-0.2-0.7-0.5-0.9-0.8c-0.2-0.3-0.5-0.6-0.5-0.9c-0.2-0.3-0.2-0.7,0-1.1C140.5,51.6,140.6,51.1,140.8,50.8L140.8,50.8z M96.3,47.9l-3,9.7C92.9,59,93.7,60.5,95,61l8.6,2.7L96.3,47.9L96.3,47.9z M75.2,80.5c0.2-0.3,0.2-0.6,0.5-0.8c0.2-0.3,0.5-0.5,0.6-0.6c0.5-0.3,1.1-0.3,1.7-0.2c0.3,0.1,0.5,0.3,0.8,0.5l0.6,0.6c0.6,1.2,0.2,2.6-0.9,3.3c-0.5,0.3-1.1,0.3-1.7,0.2c-0.3-0.2-0.6-0.2-0.8-0.5c-0.3-0.2-0.5-0.5-0.6-0.6c-0.2-0.3-0.2-0.5-0.3-0.8C75,81.3,75,80.9,75.2,80.5L75.2,80.5L75.2,80.5z M77.7,61.3l1.4-0.5c0.5-0.2,1-0.3,1.6-0.3h1.7c0.6,0,1.3,0.1,1.9,0.3c0.8,0.2,1.6,0.6,2.3,1.1c0.6,0.4,1.1,1,1.6,1.6c0.3,0.6,0.6,1.2,0.8,1.9c0.1,0.8,0.1,1.6-0.2,2.4c-0.2,0.7-0.5,1.3-0.9,1.9c-0.3,0.5-0.8,0.9-1.2,1.3c-0.4,0.3-0.9,0.6-1.4,0.8l-1.4,0.8c-0.3,0.2-0.8,0.3-1.1,0.5c-0.3,0.1-0.6,0.4-0.6,0.8l-0.9,2l-2.7-0.8l0.5-2.7c0-0.4,0.3-0.8,0.6-1.1c0.3-0.3,0.7-0.6,1.1-0.8c0.4-0.1,0.8-0.3,1.3-0.5c0.5-0.1,1-0.4,1.4-0.6c0.5-0.2,0.9-0.5,1.3-0.8c0.4-0.4,0.7-0.9,0.8-1.4c0.1-0.3,0.2-0.6,0.2-0.9c0-0.3-0.1-0.7-0.3-0.9c-0.2-0.3-0.5-0.5-0.8-0.8c-0.4-0.2-0.7-0.3-1.1-0.5c-0.5-0.1-1-0.2-1.6-0.2c-0.4,0-0.7,0-1.1,0.2c-0.3,0-0.5,0.1-0.8,0.2c-0.2,0-0.3,0.2-0.6,0c-0.3,0-0.6-0.3-0.6-0.6L77.7,61.3L77.7,61.3z M37.7,55c-0.2-0.2-0.3-0.5-0.5-0.8c-0.1-0.3-0.2-0.6-0.2-0.9c0-0.7,0.3-1.3,0.8-1.7c0.2-0.2,0.5-0.4,0.8-0.5c0.3-0.1,0.6-0.2,0.9-0.2c1,0,1.9,0.7,2.3,1.6c0.1,0.3,0.2,0.6,0.2,0.9c0,0.3-0.2,0.6-0.2,0.9c-0.2,0.3-0.4,0.6-0.6,0.8c-0.2,0.2-0.5,0.4-0.8,0.5c-0.6,0.2-1.2,0.2-1.7,0C38.2,55.5,37.8,55.3,37.7,55L37.7,55z M22.4,43.2c0-0.5,0.1-1,0.3-1.4l0.5-1.4c0.2-0.5,0.5-1,0.8-1.4c0.4-0.5,0.8-1,1.3-1.4c0.6-0.6,1.3-1.1,2-1.4c0.6-0.3,1.3-0.5,2-0.5c0.7,0,1.4,0.1,2,0.3c0.7,0.4,1.3,0.8,1.9,1.3c0.5,0.5,0.9,1.1,1.1,1.7c0.2,0.5,0.3,1.1,0.5,1.7v1.6c-0.2,0.5-0.2,0.9-0.3,1.4c0,0.5-0.2,0.8-0.2,1.3c0,0.3,0.1,0.7,0.3,0.9l1.3,1.9l-1.9,1.7l-1.9-1.7c-0.3-0.3-0.6-0.7-0.8-1.1c-0.1-0.4-0.2-0.8-0.2-1.3c0-0.5,0.2-0.9,0.2-1.4c0.2-0.9,0.2-1.9,0-2.8c-0.2-0.5-0.5-1-0.8-1.4c-0.2-0.3-0.5-0.5-0.8-0.6C29.4,39,29.1,39,28.8,39c-0.3,0-0.7,0.1-0.9,0.3c-0.3,0.2-0.7,0.4-0.9,0.6c-0.3,0.3-0.6,0.8-0.9,1.1c-0.2,0.4-0.3,0.7-0.5,1.1c-0.1,0.2-0.2,0.5-0.2,0.8c0,0.2-0.2,0.3-0.3,0.5c-0.2,0.3-0.6,0.3-0.9,0.2L22.4,43.2L22.4,43.2z M20.5,20.7l7,7.4c1,1,2.7,1,3.8,0l6.4-6.1L20.5,20.7L20.5,20.7z"/>
<path fill="#F7F8F9" d="M147.7,74.6l-3.6-2.1h3.1C147.5,73.2,147.6,73.9,147.7,74.6L147.7,74.6z M76.7,95.1h10.9c2.4,0,4.7-0.6,6.8-1.7l3.8-13.7l-5.6,4.6c-2.8,2.3-6.2,3.6-9.7,3.6c-8.8,0-17.7,0-26.6,0c-0.1,0.8,0.3,1.3,0.8,1.4L76.7,95.1L76.7,95.1z"/>
<path fill="#DFDFE9" d="M94.3,93.4l2.5-1.7l3.9-14.2l-2.7,2.2L94.3,93.4L94.3,93.4z M69.6,95.1h7.1L57,89.3c-0.6-0.2-0.9-0.7-0.8-1.4h-2c-0.1,1.5,0.8,2.9,2.2,3.3L69.6,95.1L69.6,95.1z M147.7,76.9l-7.5-4.4h3.9l3.6,2.1c0,0.1,0,0.3,0,0.4V76.9L147.7,76.9z"/>
<path fill="#D5D4E2" d="M104.6,130.7c-2.6-5.6-10.7-5.2-13.1,0h-2c2.8-8.3,14.4-8.1,17.2,0H104.6L104.6,130.7z M82.4,123.8c2.2,0,4.1-1.8,4.1-4.1c0-2.3-1.8-4.1-4.1-4.1c-2.2,0-4.1,1.8-4.1,4.1C78.3,122,80.2,123.8,82.4,123.8L82.4,123.8z M113.6,123.8c2.2,0,4.1-1.8,4.1-4.1c0-2.3-1.8-4.1-4.1-4.1c-2.2,0-4,1.8-4.1,4.1C109.5,122.1,111.3,123.8,113.6,123.8L113.6,123.8z"/>
</svg>